<svg xmlns="http://www.w3.org/2000/svg" version="1.1" xmlns:xlink="http://www.w3.org/1999/xlink" xmlns:svgjs="http://svgjs.dev/svgjs" width="1000" height="750" viewBox="0 0 1000 750"><rect width="1000" height="750" fill="#100317"></rect><g transform="matrix(0.834,0,0,0.834,82.49454545454546,115.4193570850203)"><svg viewBox="0 0 396 247" data-background-color="#100317" preserveAspectRatio="xMidYMid meet" height="623" width="1000" xmlns="http://www.w3.org/2000/svg" xmlns:xlink="http://www.w3.org/1999/xlink"><g id="tight-bounds" transform="matrix(1,0,0,1,0.2400000000000091,-0.09999999999999432)"><svg viewBox="0 0 395.52 247.2" height="247.2" width="395.52"><g><svg></svg></g><g><svg viewBox="0 0 395.52 247.2" height="247.2" width="395.52"><g transform="matrix(1,0,0,1,148.32812228571427,47.215199999999996)"><svg viewBox="0 0 98.86375542857144 152.7696" height="152.7696" width="98.86375542857144"><g><svg viewBox="0 0 98.86375542857144 152.7696" height="152.7696" width="98.86375542857144"><g><svg viewBox="0 0 98.86375542857144 152.7696" height="152.7696" width="98.86375542857144"><g><svg viewBox="0 0 98.86375542857144 152.7696" height="152.7696" width="98.86375542857144"><g id="textblocktransform"><svg viewBox="0 0 98.86375542857144 152.7696" height="152.7696" width="98.86375542857144" id="textblock"><g><svg viewBox="0 0 98.86375542857144 152.7696" height="152.7696" width="98.86375542857144"><g transform="matrix(1,0,0,1,0,0)"><svg width="98.86375542857144" viewBox="3.549999952316284 -35 22.650001525878906 35" height="152.7696" data-palette-color="#ffffff"><path d="M13.4-13.45L13.4-13.45 10.8-13.45 10.8 0 3.55 0 3.55-35 14.55-35Q20.7-35 23.45-32.38 26.2-29.75 26.2-24.28 26.2-18.8 22.83-16.13 19.45-13.45 13.4-13.45ZM12.85-29.3L12.85-29.3 10.8-29.3 10.8-19.15 11.6-19.15Q15.4-19.15 17.18-20.3 18.95-21.45 18.95-24.18 18.95-26.9 17.5-28.1 16.05-29.3 12.85-29.3Z" opacity="1" transform="matrix(1,0,0,1,0,0)" fill="#ffffff" class="wordmark-text-0" data-fill-palette-color="primary" id="text-0"></path></svg></g></svg></g></svg></g></svg></g></svg></g></svg></g></svg></g><g><path d="M0 123.6c0-68.262 55.338-123.6 123.6-123.6 30.402 0 58.24 10.976 79.768 29.183l-11.147 0c-19.26-14.022-42.974-22.294-68.621-22.295-25.647 0-49.361 8.272-68.621 22.295h-5.547l0 4.298c-25.98 21.406-42.543 53.828-42.544 90.119 0 36.291 16.564 68.713 42.544 90.119v4.298l5.547 0c19.26 14.022 42.974 22.294 68.621 22.295 25.647 0 49.361-8.272 68.621-22.295l11.147 0c-21.528 18.206-49.366 29.183-79.768 29.183-68.262 0-123.6-55.338-123.6-123.6z" fill="#ffffff" stroke="transparent" data-fill-palette-color="tertiary"></path></g></svg></g><defs></defs></svg><rect width="395.52" height="247.2" fill="none" stroke="none" visibility="hidden"></rect></g></svg></g></svg>